<?xml version="1.0" encoding="UTF-8"?>
<svg width="32" height="32" version="1.1" viewBox="0 0 8.4667 8.4667" xmlns="http://www.w3.org/2000/svg">
  <g stroke-linecap="round" stroke-linejoin="round">
    <g stroke-width=".54013">
      <path d="m2.9133 2.9989h0.12641c0.11157 0 0.20139 0.093572 0.20139 0.2098v0.1317c0 0.11623-0.089818 0.2098-0.20139 0.2098h-0.12641c-0.11157 0-0.20139-0.093572-0.20139-0.2098v-0.1317c0-0.11623 0.089818-0.2098 0.20139-0.2098z" fill="#198754"/>
      <path d="m4.104 2.9989h1.4494c0.11157 0 0.20139 0.067716 0.20139 0.15183v0.24764c0 0.084114-0.089818 0.15183-0.20139 0.15183h-1.4494c-0.11157 0-0.20139-0.067716-0.20139-0.15183v-0.24764c0-0.084114 0.089819-0.15183 0.20139-0.15183z" fill="#8a8a8a"/>
      <path d="m2.9133 3.9577h0.12641c0.11157 0 0.20139 0.093572 0.20139 0.2098v0.1317c0 0.11623-0.089818 0.2098-0.20139 0.2098h-0.12641c-0.11157 0-0.20139-0.093572-0.20139-0.2098v-0.1317c0-0.11623 0.089819-0.2098 0.20139-0.2098z" fill="#198754"/>
      <path d="m4.104 3.9577h1.4494c0.11157 0 0.20139 0.067716 0.20139 0.15183v0.24764c0 0.084114-0.089818 0.15183-0.20139 0.15183h-1.4494c-0.11157 0-0.20139-0.067716-0.20139-0.15183v-0.24764c0-0.084113 0.089819-0.15183 0.20139-0.15183z" fill="#8a8a8a"/>
      <path d="m2.9133 4.9165h0.12641c0.11157 0 0.20139 0.093572 0.20139 0.2098v0.1317c0 0.11623-0.089819 0.2098-0.20139 0.2098h-0.12641c-0.11157 0-0.20139-0.093572-0.20139-0.2098v-0.1317c0-0.11623 0.089818-0.2098 0.20139-0.2098z" fill="#198754"/>
      <path d="m4.104 4.9165h1.4494c0.11157 0 0.20139 0.067716 0.20139 0.15183v0.24764c0 0.084114-0.089819 0.15183-0.20139 0.15183h-1.4494c-0.11157 0-0.20139-0.067716-0.20139-0.15183v-0.24764c0-0.084114 0.089819-0.15183 0.20139-0.15183z" fill="#8a8a8a"/>
    </g>
    <path d="m5.32 0.4834h1.0867c0.10955 0 0.19774 0.10281 0.19774 0.23052v7.2359c0 0.12771-0.088192 0.23052-0.19774 0.23052h-4.3467c-0.10955 0-0.19774-0.10281-0.19774-0.23052v-7.2359c0-0.12771 0.088193-0.23052 0.19774-0.23052h1.0867" fill="none" stroke="#010000" stroke-width=".56102"/>
    <path d="m3.3763 5.3989e-5h1.714c0.11157 0 0.20139 0.067716 0.20139 0.15183v0.79894c0 0.084114-0.089819 0.15183-0.20139 0.15183h-1.714c-0.11157 0-0.20139-0.067716-0.20139-0.15183v-0.79894c0-0.084114 0.089819-0.15183 0.20139-0.15183z" fill="#8a8a8a" stroke-width=".54013"/>
    <path d="m3.9055 0.82701h0.6556c0.11157 0 0.20139 0.067716 0.20139 0.15183v0.24764c0 0.084114-0.089819 0.15183-0.20139 0.15183h-0.6556c-0.11157 0-0.20139-0.067716-0.20139-0.15183v-0.24764c0-0.084113 0.089818-0.15183 0.20139-0.15183z" fill="#d7b52c" stroke-width=".54013"/>
  </g>
</svg>
