<?xml version="1.0" encoding="UTF-8"?>
<svg width="32" height="32" version="1.1" viewBox="0 0 8.4667 8.4667" xmlns="http://www.w3.org/2000/svg">
  <title>Settings</title>
  <g transform="translate(.017556 -.018464)" fill="none" stroke="#000">
    <path transform="matrix(.50195 0 0 .51177 -.53995 -.5723)" d="m7.9923 7.6274c1.6489-1.2263 1.2596-1.2219 2.9353-0.032706 1.6758 1.1892 1.5513 0.82032 0.93818 2.7816-0.61318 1.9612-0.30078 1.7289-2.3555 1.7518-2.0547 0.022894-1.7372 0.24821-2.394-1.6989-0.65672-1.9471-0.7729-1.5755 0.87596-2.8018z" stroke-width="1.0074"/>
    <path transform="matrix(.42809 0 0 .43449 .6246 .6155)" d="m14.802 14.896c-1.7722 1.7302-1.0757 0.14348-3.3722 1.0712-2.2625 0.91397-0.68141 1.5812-3.1214 1.552-2.4766-0.029697-0.86211-0.6592-3.1419-1.6271-2.2461-0.95357-1.5999 0.63628-3.3046-1.1097-1.7302-1.7722-0.14348-1.0757-1.0712-3.3722-0.91397-2.2625-1.5812-0.68141-1.552-3.1214 0.029698-2.4766 0.65921-0.86211 1.6271-3.1419 0.95357-2.2461-0.63628-1.5999 1.1097-3.3046 1.7722-1.7302 1.0757-0.14348 3.3722-1.0712 2.2625-0.91397 0.68141-1.5812 3.1214-1.552 2.4766 0.029698 0.86211 0.65921 3.1419 1.6271 2.2461 0.95357 1.5999-0.63628 3.3046 1.1097 1.7302 1.7722 0.14348 1.0757 1.0712 3.3722 0.91397 2.2625 1.5812 0.68141 1.552 3.1214-0.0297 2.4766-0.65921 0.86211-1.6271 3.1419-0.95357 2.2461 0.63628 1.5999-1.1097 3.3046z" stroke-width="1.1839"/>
  </g>
</svg>
