<?xml version="1.0" encoding="UTF-8"?>
<svg width="32" height="32" version="1.1" viewBox="0 0 8.4667 8.4667" xmlns="http://www.w3.org/2000/svg">
  <title>Tehmes</title>
  <g transform="translate(-.0092385 -.0096828)" fill="none" stroke="#000" stroke-linecap="round" stroke-linejoin="round">
    <path d="m7.6844 2.4996c0.70741 1.4448 0.47479 3.1734-0.58928 4.3799-1.0642 1.2065-2.7502 1.6531-4.272 1.1317-1.5219-0.52144-2.5797-1.9083-2.6804-3.5138-0.10063-1.6055 0.77577-3.1136 2.2206-3.821 1.9728-0.96593 4.3552-0.14966 5.3211 1.8232z" stroke-dasharray="4.1729, 4.1729" stroke-width=".52162" style="paint-order:normal"/>
    <path d="m5.2597 2.7206c0.61575 0.41144 0.92304 1.1533 0.77858 1.8796-0.14449 0.72633-0.71226 1.2941-1.4386 1.4386-0.72633 0.14446-1.4682-0.16284-1.8796-0.7786-0.41143-0.61576-0.41137-1.4187 7.17e-5 -2.0345 0.26979-0.40376 0.68893-0.68381 1.1652-0.77852 0.47628-0.094725 0.97068 0.00363 1.3744 0.27339z" stroke-linecap="round" stroke-linejoin="bevel" stroke-width=".39121" style="paint-order:normal"/>
    <path d="m3.7302 7.3828c-1.2693-0.20724-2.2888-1.1587-2.5831-2.4107-0.2943-1.252 0.19455-2.558 1.2386-3.309 1.0441-0.75102 2.4377-0.79911 3.5312-0.12196 1.0934 0.67721 1.6712 1.9464 1.464 3.2156-0.13588 0.83233-0.59683 1.5766-1.2814 2.069-0.68462 0.49247-1.5369 0.69283-2.3692 0.55694z" stroke-dasharray="2.34727, 2.34727" stroke-width=".39121" style="paint-order:normal"/>
    <path d="m2.2053 2.9408c0.54353-0.8094 1.5211-1.2117 2.4769-1.0193 0.95579 0.19241 1.7015 0.94161 1.8895 1.8983 0.18798 0.95666-0.21878 1.9324-1.0307 2.4722-0.8119 0.53979-1.869 0.53739-2.6784-0.0061302-0.53074-0.3564-0.8982-0.90906-1.0214-1.5363-0.12322-0.62727 0.0077036-1.2779 0.36408-1.8086z" stroke-dasharray="1.56483, 1.56483" stroke-width=".26081" style="paint-order:normal"/>
  </g>
</svg>
